<?xml version="1.0" encoding="UTF-8" standalone="no"?>
<svg
   xmlns:dc="http://purl.org/dc/elements/1.1/"
   xmlns:cc="http://creativecommons.org/ns#"
   xmlns:rdf="http://www.w3.org/1999/02/22-rdf-syntax-ns#"
   xmlns:svg="http://www.w3.org/2000/svg"
   xmlns="http://www.w3.org/2000/svg"
   viewBox="0 0 183.83867 202.73599"
   height="202.73599"
   width="183.83867"
   xml:space="preserve"
   id="svg774"
   version="1.1"><metadata
     id="metadata780"><rdf:RDF><cc:Work
         rdf:about=""><dc:format>image/svg+xml</dc:format><dc:type
           rdf:resource="http://purl.org/dc/dcmitype/StillImage" /><dc:title></dc:title></cc:Work></rdf:RDF></metadata><defs
     id="defs778" /><g
     transform="matrix(1.3333333,0,0,-1.3333333,0,202.736)"
     id="g782"><g
       transform="translate(56.892,10.12)"
       id="g784"><g
         id="g786"><g
           id="g788"><g
             id="g790"><g
               id="g792"><path
                 id="path794"
                 style="fill:none;stroke:#000000;stroke-width:0.3985;stroke-linecap:butt;stroke-linejoin:miter;stroke-miterlimit:10;stroke-dasharray:none;stroke-opacity:1"
                 d="m 9.92134,85.04042 c 0,5.47948 -4.44186,9.92134 -9.92134,9.92134 -5.47948,0 -9.92134,-4.44186 -9.92134,-9.92134 0,-5.47948 4.44186,-9.92134 9.92134,-9.92134 5.47948,0 9.92134,4.44186 9.92134,9.92134 z" /></g><g
               transform="translate(0,85.04)"
               id="g796"><g
                 id="g798" /><g
                 transform="translate(0,-85.04)"
                 id="g800" /></g></g><g
             id="g802"><g
               id="g804"><path
                 id="path806"
                 style="fill:none;stroke:#000000;stroke-width:0.3985;stroke-linecap:butt;stroke-linejoin:miter;stroke-miterlimit:10;stroke-dasharray:none;stroke-opacity:1"
                 d="m 80.78835,85.04042 c 0,5.47948 -4.44187,9.92134 -9.92135,9.92134 -5.47947,0 -9.92134,-4.44186 -9.92134,-9.92134 0,-5.47948 4.44187,-9.92134 9.92134,-9.92134 5.47948,0 9.92135,4.44186 9.92135,9.92134 z" /></g><g
               transform="translate(70.866,85.04)"
               id="g808"><g
                 id="g810" /><g
                 transform="translate(-70.866,-85.04)"
                 id="g812" /></g></g><g
             id="g814"><g
               id="g816"><path
                 id="path818"
                 style="fill:none;stroke:#000000;stroke-width:0.3985;stroke-linecap:butt;stroke-linejoin:miter;stroke-miterlimit:10;stroke-dasharray:none;stroke-opacity:1"
                 d="m 45.35484,42.5202 c 0,5.47948 -4.44188,9.92134 -9.92135,9.92134 -5.47948,0 -9.92134,-4.44186 -9.92134,-9.92134 0,-5.47947 4.44186,-9.92134 9.92134,-9.92134 5.47947,0 9.92135,4.44187 9.92135,9.92134 z" /></g><g
               transform="translate(35.433,42.52)"
               id="g820"><g
                 id="g822" /><g
                 transform="translate(-35.433,-42.52)"
                 id="g824" /></g></g><g
             id="g826"><g
               id="g828"><path
                 id="path830"
                 style="fill:none;stroke:#000000;stroke-width:0.3985;stroke-linecap:butt;stroke-linejoin:miter;stroke-miterlimit:10;stroke-dasharray:none;stroke-opacity:1"
                 d="m 80.78835,0 c 0,5.47948 -4.44187,9.92134 -9.92135,9.92134 -5.47947,0 -9.92134,-4.44186 -9.92134,-9.92134 0,-5.47948 4.44187,-9.92134 9.92134,-9.92134 5.47948,0 9.92135,4.44186 9.92135,9.92134 z" /></g><g
               transform="translate(70.866)"
               id="g832"><g
                 id="g834" /><g
                 transform="translate(-70.866)"
                 id="g836" /></g></g><g
             id="g838"><g
               id="g840"><path
                 id="path842"
                 style="fill:none;stroke:#000000;stroke-width:0.3985;stroke-linecap:butt;stroke-linejoin:miter;stroke-miterlimit:10;stroke-dasharray:none;stroke-opacity:1"
                 d="M 9.92134,0 C 9.92134,5.47948 5.47948,9.92134 0,9.92134 -5.47948,9.92134 -9.92134,5.47948 -9.92134,0 c 0,-5.47948 4.44186,-9.92134 9.92134,-9.92134 5.47948,0 9.92134,4.44186 9.92134,9.92134 z" /></g><g
               id="g844"><g
                 id="g846" /></g></g><g
             id="g848"><path
               id="path850"
               style="fill:none;stroke:#000000;stroke-width:0.3985;stroke-linecap:butt;stroke-linejoin:miter;stroke-miterlimit:10;stroke-dasharray:none;stroke-opacity:1"
               d="M 6.48997,77.25278 28.94366,50.30785" /><g
               id="g852"><g
                 transform="translate(21.236,67.299)"
                 id="g854"><g
                   id="g856"><g
                     transform="translate(-78.128,-77.419)"
                     id="g858"><text
                       id="text862"
                       style="font-variant:normal;font-weight:normal;font-size:9.96259975px;font-family:SFRM1000;-inkscape-font-specification:SFRM1000;writing-mode:lr-tb;fill:#000000;fill-opacity:1;fill-rule:nonzero;stroke:none"
                       transform="matrix(1,0,0,-1,78.128,77.419)"><tspan
                         id="tspan860"
                         y="0"
                         x="0">1</tspan></text>
<g
                       transform="translate(78.128,77.419)"
                       id="g864" /></g></g><g
                   transform="translate(-21.236,-67.299)"
                   id="g866" /></g></g></g><g
             id="g868"><path
               id="path870"
               style="fill:none;stroke:#000000;stroke-width:0.3985;stroke-linecap:butt;stroke-linejoin:miter;stroke-miterlimit:10;stroke-dasharray:none;stroke-opacity:1"
               d="M 41.92348,34.73256 64.37718,7.78763" /><g
               id="g872"><g
                 transform="translate(56.669,24.779)"
                 id="g874"><g
                   id="g876"><g
                     transform="translate(-113.561,-34.899)"
                     id="g878"><text
                       id="text882"
                       style="font-variant:normal;font-weight:normal;font-size:9.96259975px;font-family:SFRM1000;-inkscape-font-specification:SFRM1000;writing-mode:lr-tb;fill:#000000;fill-opacity:1;fill-rule:nonzero;stroke:none"
                       transform="matrix(1,0,0,-1,113.561,34.899)"><tspan
                         id="tspan880"
                         y="0"
                         x="0">1</tspan></text>
<g
                       transform="translate(113.561,34.899)"
                       id="g884" /></g></g><g
                   transform="translate(-56.669,-24.779)"
                   id="g886" /></g></g></g><g
             id="g888"><path
               id="path890"
               style="fill:none;stroke:#000000;stroke-width:0.3985;stroke-linecap:butt;stroke-linejoin:miter;stroke-miterlimit:10;stroke-dasharray:none;stroke-opacity:1"
               d="M 10.12059,85.04042 H 60.74641" /><g
               id="g892"><g
                 transform="translate(32.943,88.559)"
                 id="g894"><g
                   id="g896"><g
                     transform="translate(-89.835,-98.679)"
                     id="g898"><text
                       id="text902"
                       style="font-variant:normal;font-weight:normal;font-size:9.96259975px;font-family:SFRM1000;-inkscape-font-specification:SFRM1000;writing-mode:lr-tb;fill:#000000;fill-opacity:1;fill-rule:nonzero;stroke:none"
                       transform="matrix(1,0,0,-1,89.835,98.679)"><tspan
                         id="tspan900"
                         y="0"
                         x="0">1</tspan></text>
<g
                       transform="translate(89.835,98.679)"
                       id="g904" /></g></g><g
                   transform="translate(-32.943,-88.559)"
                   id="g906" /></g></g></g><g
             id="g908"><path
               id="path910"
               style="fill:none;stroke:#000000;stroke-width:0.3985;stroke-linecap:butt;stroke-linejoin:miter;stroke-miterlimit:10;stroke-dasharray:none;stroke-opacity:1"
               d="M 60.74641,0 H 10.12059" /><g
               id="g912"><g
                 transform="translate(32.943,3.519)"
                 id="g914"><g
                   id="g916"><g
                     transform="translate(-89.835,-13.639)"
                     id="g918"><text
                       id="text922"
                       style="font-variant:normal;font-weight:normal;font-size:9.96259975px;font-family:SFRM1000;-inkscape-font-specification:SFRM1000;writing-mode:lr-tb;fill:#000000;fill-opacity:1;fill-rule:nonzero;stroke:none"
                       transform="matrix(1,0,0,-1,89.835,13.639)"><tspan
                         id="tspan920"
                         y="0"
                         x="0">1</tspan></text>
<g
                       transform="translate(89.835,13.639)"
                       id="g924" /></g></g><g
                   transform="translate(-32.943,-3.519)"
                   id="g926" /></g></g></g><g
             id="g928"><path
               id="path930"
               style="fill:none;stroke:#000000;stroke-width:0.3985;stroke-linecap:butt;stroke-linejoin:miter;stroke-miterlimit:10;stroke-dasharray:none;stroke-opacity:1"
               d="m -3.77142,9.4289 c -52.9222,132.30514 39.20491,89.78492 65.20953,79.38311" /><g
               id="g932"><g
                 transform="translate(-3.254,106.154)"
                 id="g934"><g
                   id="g936"><g
                     transform="translate(-53.638,-116.274)"
                     id="g938"><text
                       id="text942"
                       style="font-variant:normal;font-weight:normal;font-size:9.96259975px;font-family:SFRM1000;-inkscape-font-specification:SFRM1000;writing-mode:lr-tb;fill:#000000;fill-opacity:1;fill-rule:nonzero;stroke:none"
                       transform="matrix(1,0,0,-1,53.638,116.274)"><tspan
                         id="tspan940"
                         y="0"
                         x="0">2</tspan></text>
<g
                       transform="translate(53.638,116.274)"
                       id="g944" /></g></g><g
                   transform="translate(3.254,-106.154)"
                   id="g946" /></g></g></g></g></g></g></g></svg>