<?xml version="1.0" encoding="UTF-8" standalone="no"?>
<svg
   xmlns:dc="http://purl.org/dc/elements/1.1/"
   xmlns:cc="http://creativecommons.org/ns#"
   xmlns:rdf="http://www.w3.org/1999/02/22-rdf-syntax-ns#"
   xmlns:svg="http://www.w3.org/2000/svg"
   xmlns="http://www.w3.org/2000/svg"
   viewBox="0 0 121.476 144.52"
   height="144.52"
   width="121.476"
   xml:space="preserve"
   id="svg478"
   version="1.1"><metadata
     id="metadata484"><rdf:RDF><cc:Work
         rdf:about=""><dc:format>image/svg+xml</dc:format><dc:type
           rdf:resource="http://purl.org/dc/dcmitype/StillImage" /><dc:title></dc:title></cc:Work></rdf:RDF></metadata><defs
     id="defs482" /><g
     transform="matrix(1.3333333,0,0,-1.3333333,0,144.52)"
     id="g486"><g
       transform="translate(10.12,10.12)"
       id="g488"><g
         id="g490"><g
           id="g492"><g
             id="g494"><g
               id="g496"><path
                 id="path498"
                 style="fill:none;stroke:#000000;stroke-width:0.3985;stroke-linecap:butt;stroke-linejoin:miter;stroke-miterlimit:10;stroke-dasharray:none;stroke-opacity:1"
                 d="m 9.92134,85.04042 c 0,5.47948 -4.44186,9.92134 -9.92134,9.92134 -5.47948,0 -9.92134,-4.44186 -9.92134,-9.92134 0,-5.47948 4.44186,-9.92134 9.92134,-9.92134 5.47948,0 9.92134,4.44186 9.92134,9.92134 z" /></g><g
               transform="translate(0,85.04)"
               id="g500"><g
                 id="g502" /><g
                 transform="translate(0,-85.04)"
                 id="g504" /></g></g><g
             id="g506"><g
               id="g508"><path
                 id="path510"
                 style="fill:none;stroke:#000000;stroke-width:0.3985;stroke-linecap:butt;stroke-linejoin:miter;stroke-miterlimit:10;stroke-dasharray:none;stroke-opacity:1"
                 d="m 80.78835,85.04042 c 0,5.47948 -4.44187,9.92134 -9.92135,9.92134 -5.47947,0 -9.92134,-4.44186 -9.92134,-9.92134 0,-5.47948 4.44187,-9.92134 9.92134,-9.92134 5.47948,0 9.92135,4.44186 9.92135,9.92134 z" /></g><g
               transform="translate(70.867,85.04)"
               id="g512"><g
                 id="g514" /><g
                 transform="translate(-70.867,-85.04)"
                 id="g516" /></g></g><g
             id="g518"><g
               id="g520"><path
                 id="path522"
                 style="fill:none;stroke:#000000;stroke-width:0.3985;stroke-linecap:butt;stroke-linejoin:miter;stroke-miterlimit:10;stroke-dasharray:none;stroke-opacity:1"
                 d="m 80.78835,0 c 0,5.47948 -4.44187,9.92134 -9.92135,9.92134 -5.47947,0 -9.92134,-4.44186 -9.92134,-9.92134 0,-5.47948 4.44187,-9.92134 9.92134,-9.92134 5.47948,0 9.92135,4.44186 9.92135,9.92134 z" /></g><g
               transform="translate(70.867)"
               id="g524"><g
                 id="g526" /><g
                 transform="translate(-70.867)"
                 id="g528" /></g></g><g
             id="g530"><g
               id="g532"><path
                 id="path534"
                 style="fill:none;stroke:#000000;stroke-width:0.3985;stroke-linecap:butt;stroke-linejoin:miter;stroke-miterlimit:10;stroke-dasharray:none;stroke-opacity:1"
                 d="M 9.92134,0 C 9.92134,5.47948 5.47948,9.92134 0,9.92134 -5.47948,9.92134 -9.92134,5.47948 -9.92134,0 c 0,-5.47948 4.44186,-9.92134 9.92134,-9.92134 5.47948,0 9.92134,4.44186 9.92134,9.92134 z" /></g><g
               id="g536"><g
                 id="g538" /></g></g><g
             id="g540"><path
               id="path542"
               style="fill:none;stroke:#000000;stroke-width:0.3985;stroke-linecap:butt;stroke-linejoin:miter;stroke-miterlimit:10;stroke-dasharray:none;stroke-opacity:1"
               d="M 10.12059,85.04042 H 60.74641" /><g
               id="g544"><g
                 transform="translate(32.943,88.559)"
                 id="g546"><g
                   id="g548"><g
                     transform="translate(-43.063,-98.679)"
                     id="g550"><text
                       id="text554"
                       style="font-variant:normal;font-weight:normal;font-size:9.96259975px;font-family:SFRM1000;-inkscape-font-specification:SFRM1000;writing-mode:lr-tb;fill:#000000;fill-opacity:1;fill-rule:nonzero;stroke:none"
                       transform="matrix(1,0,0,-1,43.063,98.679)"><tspan
                         id="tspan552"
                         y="0"
                         x="0">1</tspan></text>
<g
                       transform="translate(43.063,98.679)"
                       id="g556" /></g></g><g
                   transform="translate(-32.943,-88.559)"
                   id="g558" /></g></g></g><g
             id="g560"><path
               id="path562"
               style="fill:none;stroke:#000000;stroke-width:0.3985;stroke-linecap:butt;stroke-linejoin:miter;stroke-miterlimit:10;stroke-dasharray:none;stroke-opacity:1"
               d="M 10.12059,0 H 60.74641" /><g
               id="g564"><g
                 transform="translate(32.943,3.519)"
                 id="g566"><g
                   id="g568"><g
                     transform="translate(-43.063,-13.639)"
                     id="g570"><text
                       id="text574"
                       style="font-variant:normal;font-weight:normal;font-size:9.96259975px;font-family:SFRM1000;-inkscape-font-specification:SFRM1000;writing-mode:lr-tb;fill:#000000;fill-opacity:1;fill-rule:nonzero;stroke:none"
                       transform="matrix(1,0,0,-1,43.063,13.639)"><tspan
                         id="tspan572"
                         y="0"
                         x="0">1</tspan></text>
<g
                       transform="translate(43.063,13.639)"
                       id="g576" /></g></g><g
                   transform="translate(-32.943,-3.519)"
                   id="g578" /></g></g></g></g></g></g></g></svg>