<?xml version="1.0" encoding="UTF-8" standalone="no"?>
<svg
   xmlns:dc="http://purl.org/dc/elements/1.1/"
   xmlns:cc="http://creativecommons.org/ns#"
   xmlns:rdf="http://www.w3.org/1999/02/22-rdf-syntax-ns#"
   xmlns:svg="http://www.w3.org/2000/svg"
   xmlns="http://www.w3.org/2000/svg"
   viewBox="0 0 121.476 140.37334"
   height="140.37334"
   width="121.476"
   xml:space="preserve"
   id="svg10"
   version="1.1"><metadata
     id="metadata16"><rdf:RDF><cc:Work
         rdf:about=""><dc:format>image/svg+xml</dc:format><dc:type
           rdf:resource="http://purl.org/dc/dcmitype/StillImage" /><dc:title></dc:title></cc:Work></rdf:RDF></metadata><defs
     id="defs14" /><g
     transform="matrix(1.3333333,0,0,-1.3333333,0,140.37333)"
     id="g18"><g
       transform="translate(10.12,10.12)"
       id="g20"><g
         id="g22"><g
           id="g24"><g
             id="g26"><g
               id="g28"><path
                 id="path30"
                 style="fill:none;stroke:#000000;stroke-width:0.3985;stroke-linecap:butt;stroke-linejoin:miter;stroke-miterlimit:10;stroke-dasharray:none;stroke-opacity:1"
                 d="m 9.92134,85.04042 c 0,5.47948 -4.44186,9.92134 -9.92134,9.92134 -5.47948,0 -9.92134,-4.44186 -9.92134,-9.92134 0,-5.47948 4.44186,-9.92134 9.92134,-9.92134 5.47948,0 9.92134,4.44186 9.92134,9.92134 z" /></g><g
               transform="translate(0,85.04)"
               id="g32"><g
                 id="g34" /><g
                 transform="translate(0,-85.04)"
                 id="g36" /></g></g><g
             id="g38"><g
               id="g40"><path
                 id="path42"
                 style="fill:none;stroke:#000000;stroke-width:0.3985;stroke-linecap:butt;stroke-linejoin:miter;stroke-miterlimit:10;stroke-dasharray:none;stroke-opacity:1"
                 d="m 80.78835,85.04042 c 0,5.47948 -4.44187,9.92134 -9.92135,9.92134 -5.47947,0 -9.92134,-4.44186 -9.92134,-9.92134 0,-5.47948 4.44187,-9.92134 9.92134,-9.92134 5.47948,0 9.92135,4.44186 9.92135,9.92134 z" /></g><g
               transform="translate(70.867,85.04)"
               id="g44"><g
                 id="g46" /><g
                 transform="translate(-70.867,-85.04)"
                 id="g48" /></g></g><g
             id="g50"><g
               id="g52"><path
                 id="path54"
                 style="fill:none;stroke:#000000;stroke-width:0.3985;stroke-linecap:butt;stroke-linejoin:miter;stroke-miterlimit:10;stroke-dasharray:none;stroke-opacity:1"
                 d="m 45.35484,42.5202 c 0,5.47948 -4.44188,9.92134 -9.92135,9.92134 -5.47948,0 -9.92134,-4.44186 -9.92134,-9.92134 0,-5.47947 4.44186,-9.92134 9.92134,-9.92134 5.47947,0 9.92135,4.44187 9.92135,9.92134 z" /></g><g
               transform="translate(35.434,42.52)"
               id="g56"><g
                 id="g58" /><g
                 transform="translate(-35.434,-42.52)"
                 id="g60" /></g></g><g
             id="g62"><g
               id="g64"><path
                 id="path66"
                 style="fill:none;stroke:#000000;stroke-width:0.3985;stroke-linecap:butt;stroke-linejoin:miter;stroke-miterlimit:10;stroke-dasharray:none;stroke-opacity:1"
                 d="m 80.78835,0 c 0,5.47948 -4.44187,9.92134 -9.92135,9.92134 -5.47947,0 -9.92134,-4.44186 -9.92134,-9.92134 0,-5.47948 4.44187,-9.92134 9.92134,-9.92134 5.47948,0 9.92135,4.44186 9.92135,9.92134 z" /></g><g
               transform="translate(70.867)"
               id="g68"><g
                 id="g70" /><g
                 transform="translate(-70.867)"
                 id="g72" /></g></g><g
             id="g74"><g
               id="g76"><path
                 id="path78"
                 style="fill:none;stroke:#000000;stroke-width:0.3985;stroke-linecap:butt;stroke-linejoin:miter;stroke-miterlimit:10;stroke-dasharray:none;stroke-opacity:1"
                 d="M 9.92134,0 C 9.92134,5.47948 5.47948,9.92134 0,9.92134 -5.47948,9.92134 -9.92134,5.47948 -9.92134,0 c 0,-5.47948 4.44186,-9.92134 9.92134,-9.92134 5.47948,0 9.92134,4.44186 9.92134,9.92134 z" /></g><g
               id="g80"><g
                 id="g82" /></g></g><g
             id="g84"><path
               id="path86"
               style="fill:none;stroke:#000000;stroke-width:0.3985;stroke-linecap:butt;stroke-linejoin:miter;stroke-miterlimit:10;stroke-dasharray:none;stroke-opacity:1"
               d="M 6.48997,77.25278 28.94366,50.30785" /><g
               id="g88"><g
                 transform="translate(35.434,42.52)"
                 id="g90"><g
                   id="g92" /><g
                   transform="translate(-35.434,-42.52)"
                   id="g94" /></g></g></g><g
             id="g96"><path
               id="path98"
               style="fill:none;stroke:#000000;stroke-width:0.3985;stroke-linecap:butt;stroke-linejoin:miter;stroke-miterlimit:10;stroke-dasharray:none;stroke-opacity:1"
               d="M 64.37703,77.25278 41.92332,50.30785" /><g
               id="g100"><g
                 transform="translate(35.434,42.52)"
                 id="g102"><g
                   id="g104" /><g
                   transform="translate(-35.434,-42.52)"
                   id="g106" /></g></g></g><g
             id="g108"><path
               id="path110"
               style="fill:none;stroke:#000000;stroke-width:0.3985;stroke-linecap:butt;stroke-linejoin:miter;stroke-miterlimit:10;stroke-dasharray:none;stroke-opacity:1"
               d="M 41.92348,34.73256 64.37718,7.78763" /><g
               id="g112"><g
                 transform="translate(70.867)"
                 id="g114"><g
                   id="g116" /><g
                   transform="translate(-70.867)"
                   id="g118" /></g></g></g><g
             id="g120"><path
               id="path122"
               style="fill:none;stroke:#000000;stroke-width:0.3985;stroke-linecap:butt;stroke-linejoin:miter;stroke-miterlimit:10;stroke-dasharray:none;stroke-opacity:1"
               d="M 28.94351,34.73256 6.48982,7.78763" /><g
               id="g124"><g
                 id="g126"><g
                   id="g128" /></g></g></g></g></g></g></g></svg>