<?xml version="1.0" encoding="UTF-8" standalone="no"?>
<svg
   xmlns:dc="http://purl.org/dc/elements/1.1/"
   xmlns:cc="http://creativecommons.org/ns#"
   xmlns:rdf="http://www.w3.org/1999/02/22-rdf-syntax-ns#"
   xmlns:svg="http://www.w3.org/2000/svg"
   xmlns="http://www.w3.org/2000/svg"
   viewBox="0 0 137.23466 140.37334"
   height="140.37334"
   width="137.23466"
   xml:space="preserve"
   id="svg130"
   version="1.1"><metadata
     id="metadata136"><rdf:RDF><cc:Work
         rdf:about=""><dc:format>image/svg+xml</dc:format><dc:type
           rdf:resource="http://purl.org/dc/dcmitype/StillImage" /><dc:title></dc:title></cc:Work></rdf:RDF></metadata><defs
     id="defs134"><clipPath
       id="clipPath212"
       clipPathUnits="userSpaceOnUse"><path
         id="path210"
         d="m 45.35484,42.5202 c 0,5.47948 -4.44188,9.92134 -9.92135,9.92134 -5.47948,0 -9.92134,-4.44186 -9.92134,-9.92134 0,-5.47947 4.44186,-9.92134 9.92134,-9.92134 5.47947,0 9.92135,4.44187 9.92135,9.92134 z" /></clipPath></defs><g
     transform="matrix(1.3333333,0,0,-1.3333333,0,140.37333)"
     id="g138"><g
       transform="translate(10.12,10.12)"
       id="g140"><g
         id="g142"><g
           id="g144"><g
             id="g146"><g
               id="g148"><path
                 id="path150"
                 style="fill:none;stroke:#000000;stroke-width:0.3985;stroke-linecap:butt;stroke-linejoin:miter;stroke-miterlimit:10;stroke-dasharray:none;stroke-opacity:1"
                 d="m 9.92134,85.04042 c 0,5.47948 -4.44186,9.92134 -9.92134,9.92134 -5.47948,0 -9.92134,-4.44186 -9.92134,-9.92134 0,-5.47948 4.44186,-9.92134 9.92134,-9.92134 5.47948,0 9.92134,4.44186 9.92134,9.92134 z" /></g><g
               transform="translate(0,85.04)"
               id="g152"><g
                 id="g154" /><g
                 transform="translate(0,-85.04)"
                 id="g156" /></g></g><g
             id="g158"><g
               transform="translate(13.64,81.844)"
               id="g160"><g
                 id="g162"><g
                   transform="translate(-23.76,-91.964)"
                   id="g164"><text
                     id="text168"
                     style="font-variant:normal;font-weight:normal;font-size:9.96259975px;font-family:SFRM1000;-inkscape-font-specification:SFRM1000;writing-mode:lr-tb;fill:#000000;fill-opacity:1;fill-rule:nonzero;stroke:none"
                     transform="matrix(1,0,0,-1,23.76,91.964)"><tspan
                       id="tspan166"
                       y="0"
                       x="0">1</tspan></text>
<g
                     transform="translate(23.76,91.964)"
                     id="g170" /></g></g><g
                 transform="translate(-13.64,-81.844)"
                 id="g172" /></g></g><g
             id="g174"><g
               id="g176"><path
                 id="path178"
                 style="fill:none;stroke:#000000;stroke-width:0.3985;stroke-linecap:butt;stroke-linejoin:miter;stroke-miterlimit:10;stroke-dasharray:none;stroke-opacity:1"
                 d="m 80.78835,85.04042 c 0,5.47948 -4.44187,9.92134 -9.92135,9.92134 -5.47947,0 -9.92134,-4.44186 -9.92134,-9.92134 0,-5.47948 4.44187,-9.92134 9.92134,-9.92134 5.47948,0 9.92135,4.44186 9.92135,9.92134 z" /></g><g
               transform="translate(70.867,85.04)"
               id="g180"><g
                 id="g182" /><g
                 transform="translate(-70.867,-85.04)"
                 id="g184" /></g></g><g
             id="g186"><g
               transform="translate(84.506,81.844)"
               id="g188"><g
                 id="g190"><g
                   transform="translate(-94.626,-91.964)"
                   id="g192"><text
                     id="text196"
                     style="font-variant:normal;font-weight:normal;font-size:9.96259975px;font-family:SFRM1000;-inkscape-font-specification:SFRM1000;writing-mode:lr-tb;fill:#000000;fill-opacity:1;fill-rule:nonzero;stroke:none"
                     transform="matrix(1,0,0,-1,94.626,91.964)"><tspan
                       id="tspan194"
                       y="0"
                       x="0">1</tspan></text>
<g
                     transform="translate(94.626,91.964)"
                     id="g198" /></g></g><g
                 transform="translate(-84.506,-81.844)"
                 id="g200" /></g></g><g
             id="g202"><g
               id="g204"><g
                 id="g206"><g
                   clip-path="url(#clipPath212)"
                   id="g208"><g
                     id="g214"><path
                       id="path216"
                       style="fill:none;stroke:#000000;stroke-width:0.3985;stroke-linecap:butt;stroke-linejoin:miter;stroke-miterlimit:10;stroke-dasharray:none;stroke-opacity:1"
                       d="M 45.35484,32.59886 25.51215,52.44154 m 0,-19.84268 19.84269,19.84268" /></g></g></g><path
                 id="path218"
                 style="fill:none;stroke:#000000;stroke-width:0.3985;stroke-linecap:butt;stroke-linejoin:miter;stroke-miterlimit:10;stroke-dasharray:none;stroke-opacity:1"
                 d="m 45.35484,42.5202 c 0,5.47948 -4.44188,9.92134 -9.92135,9.92134 -5.47948,0 -9.92134,-4.44186 -9.92134,-9.92134 0,-5.47947 4.44186,-9.92134 9.92134,-9.92134 5.47947,0 9.92135,4.44187 9.92135,9.92134 z" /></g><g
               transform="translate(35.434,42.52)"
               id="g220"><g
                 id="g222" /><g
                 transform="translate(-35.434,-42.52)"
                 id="g224" /></g></g><g
             id="g226"><g
               transform="translate(49.073,39.325)"
               id="g228"><g
                 id="g230"><g
                   transform="translate(-59.193,-49.445)"
                   id="g232"><text
                     id="text236"
                     style="font-variant:normal;font-weight:normal;font-size:9.96259975px;font-family:SFRM1000;-inkscape-font-specification:SFRM1000;writing-mode:lr-tb;fill:#000000;fill-opacity:1;fill-rule:nonzero;stroke:none"
                     transform="matrix(1,0,0,-1,59.193,49.445)"><tspan
                       id="tspan234"
                       y="0"
                       x="0">4</tspan></text>
<g
                     transform="translate(59.193,49.445)"
                     id="g238" /></g></g><g
                 transform="translate(-49.073,-39.325)"
                 id="g240" /></g></g><g
             id="g242"><g
               id="g244"><path
                 id="path246"
                 style="fill:none;stroke:#000000;stroke-width:0.3985;stroke-linecap:butt;stroke-linejoin:miter;stroke-miterlimit:10;stroke-dasharray:none;stroke-opacity:1"
                 d="m 80.78835,0 c 0,5.47948 -4.44187,9.92134 -9.92135,9.92134 -5.47947,0 -9.92134,-4.44186 -9.92134,-9.92134 0,-5.47948 4.44187,-9.92134 9.92134,-9.92134 5.47948,0 9.92135,4.44186 9.92135,9.92134 z" /></g><g
               transform="translate(70.867)"
               id="g248"><g
                 id="g250" /><g
                 transform="translate(-70.867)"
                 id="g252" /></g></g><g
             id="g254"><g
               transform="translate(84.506,-3.195)"
               id="g256"><g
                 id="g258"><g
                   transform="translate(-94.626,-6.925)"
                   id="g260"><text
                     id="text264"
                     style="font-variant:normal;font-weight:normal;font-size:9.96259975px;font-family:SFRM1000;-inkscape-font-specification:SFRM1000;writing-mode:lr-tb;fill:#000000;fill-opacity:1;fill-rule:nonzero;stroke:none"
                     transform="matrix(1,0,0,-1,94.626,6.925)"><tspan
                       id="tspan262"
                       y="0"
                       x="0">1</tspan></text>
<g
                     transform="translate(94.626,6.925)"
                     id="g266" /></g></g><g
                 transform="translate(-84.506,3.195)"
                 id="g268" /></g></g><g
             id="g270"><g
               id="g272"><path
                 id="path274"
                 style="fill:none;stroke:#000000;stroke-width:0.3985;stroke-linecap:butt;stroke-linejoin:miter;stroke-miterlimit:10;stroke-dasharray:none;stroke-opacity:1"
                 d="M 9.92134,0 C 9.92134,5.47948 5.47948,9.92134 0,9.92134 -5.47948,9.92134 -9.92134,5.47948 -9.92134,0 c 0,-5.47948 4.44186,-9.92134 9.92134,-9.92134 5.47948,0 9.92134,4.44186 9.92134,9.92134 z" /></g><g
               id="g276"><g
                 id="g278" /></g></g><g
             id="g280"><g
               transform="translate(13.64,-3.195)"
               id="g282"><g
                 id="g284"><g
                   transform="translate(-23.76,-6.925)"
                   id="g286"><text
                     id="text290"
                     style="font-variant:normal;font-weight:normal;font-size:9.96259975px;font-family:SFRM1000;-inkscape-font-specification:SFRM1000;writing-mode:lr-tb;fill:#000000;fill-opacity:1;fill-rule:nonzero;stroke:none"
                     transform="matrix(1,0,0,-1,23.76,6.925)"><tspan
                       id="tspan288"
                       y="0"
                       x="0">1</tspan></text>
<g
                     transform="translate(23.76,6.925)"
                     id="g292" /></g></g><g
                 transform="translate(-13.64,3.195)"
                 id="g294" /></g></g></g></g></g></g></svg>